M48
;DRILL file {Pcbnew (2013-may-18)-stable} date Mon 03 Feb 2014 04:38:27 PM EET
;FORMAT={-:-/ absolute / metric / decimal}
FMAT,2
METRIC,TZ
T1C0.635
T2C0.800
T3C0.813
T4C1.000
T5C1.016
T6C1.143
%
G90
G05
M71
T1
X52.832Y-27.94
X53.34Y-46.736
X65.532Y-39.624
X69.088Y-35.306
T2
X8.382Y-40.132
X8.382Y-42.672
X12.192Y-52.832
X17.272Y-52.832
X17.272Y-56.642
X19.05Y-16.002
X21.59Y-13.462
X21.59Y-16.002
X24.892Y-56.642
X31.242Y-9.144
X31.242Y-16.764
X33.782Y-9.144
X33.782Y-16.764
X36.322Y-9.144
X36.322Y-16.764
X37.592Y-43.942
X37.592Y-51.562
X39.37Y-8.382
X42.799Y-35.814
X42.799Y-40.894
X45.339Y-35.814
X45.339Y-40.894
X46.99Y-8.382
X46.99Y-11.176
X46.99Y-18.796
X46.99Y-27.94
X46.99Y-30.48
X50.038Y-35.814
X50.038Y-40.894
X50.8Y-10.16
X50.8Y-17.78
X53.34Y-52.07
X53.34Y-59.69
X58.42Y-54.61
X58.42Y-57.15
X60.96Y-54.61
X64.77Y-53.34
X64.77Y-60.96
X66.802Y-12.192
X74.422Y-12.192
X74.93Y-17.145
X75.946Y-49.276
X75.946Y-51.816
X77.47Y-17.145
X80.01Y-51.308
X80.01Y-58.928
X85.725Y-22.86
X85.725Y-27.94
X87.63Y-37.465
X89.916Y-62.547
X89.916Y-65.087
X90.17Y-37.465
X90.17Y-52.006
X90.17Y-59.627
X90.805Y-22.86
X90.805Y-27.94
X93.345Y-22.86
X93.345Y-27.94
X95.758Y-51.054
X95.758Y-58.674
T3
X28.702Y-59.182
X31.242Y-59.182
X55.88Y-15.24
X55.88Y-17.78
X55.88Y-20.32
X55.88Y-22.86
X55.88Y-25.4
X55.88Y-27.94
X55.88Y-30.48
X55.88Y-33.02
X55.88Y-35.56
X55.88Y-38.1
X55.88Y-40.64
X55.88Y-43.18
X55.88Y-45.72
X55.88Y-48.26
X63.5Y-15.24
X63.5Y-17.78
X63.5Y-20.32
X63.5Y-22.86
X63.5Y-25.4
X63.5Y-27.94
X63.5Y-30.48
X63.5Y-33.02
X63.5Y-35.56
X63.5Y-38.1
X63.5Y-40.64
X63.5Y-43.18
X63.5Y-45.72
X63.5Y-48.26
X72.39Y-22.225
X72.39Y-24.765
X72.39Y-27.305
X72.39Y-29.845
X72.39Y-32.385
X72.39Y-34.925
X72.39Y-37.465
X72.39Y-40.005
X72.39Y-42.545
X80.01Y-22.225
X80.01Y-24.765
X80.01Y-27.305
X80.01Y-29.845
X80.01Y-32.385
X80.01Y-34.925
X80.01Y-37.465
X80.01Y-40.005
X80.01Y-42.545
X85.09Y-41.275
X85.09Y-48.895
X87.63Y-41.275
X87.63Y-48.895
X90.17Y-41.275
X90.17Y-48.895
X92.71Y-41.275
X92.71Y-48.895
T4
X3.302Y-23.702
X3.302Y-28.702
X3.302Y-33.702
X3.572Y-47.792
X3.572Y-52.792
X6.35Y-6.35
X6.35Y-62.23
X12.812Y-22.702
X12.812Y-34.702
X24.812Y-22.702
X24.812Y-34.702
X26.812Y-28.702
X27.432Y-46.482
X28.702Y-4.064
X29.972Y-46.482
X31.242Y-4.064
X31.242Y-22.352
X32.512Y-46.482
X33.782Y-4.064
X36.322Y-4.064
X42.926Y-4.064
X45.466Y-4.064
X48.006Y-4.064
X50.546Y-4.064
X56.134Y-4.064
X56.134Y-9.144
X63.754Y-4.064
X63.754Y-9.144
X72.39Y-62.23
X80.01Y-63.5
X82.55Y-63.5
X85.09Y-63.5
X92.71Y-6.35
T5
X14.732Y-45.212
X19.812Y-45.212
X45.72Y-46.736
X45.72Y-51.816
X57.15Y-63.5
X59.69Y-63.5
T6
X21.082Y-52.832
X31.242Y-35.052
X33.782Y-52.832
X66.802Y-9.398
X79.502Y-9.398
T0
M30
